<?xml version="1.0" encoding="utf-8"?>
<!-- Generator: Adobe Illustrator 27.5.0, SVG Export Plug-In . SVG Version: 6.00 Build 0)  -->
<svg version="1.1" id="Layer_1" xmlns="http://www.w3.org/2000/svg" xmlns:xlink="http://www.w3.org/1999/xlink" x="0px" y="0px"
	 viewBox="0 0 4000 4000" style="enable-background:new 0 0 4000 4000;" xml:space="preserve">
<g>
	<rect style="fill:#C4C4FF;" width="4000" height="4000"/>
	<g>
		<g>
			<path style="fill:#1D1D1D;" d="M632.993,2484.642l0.35,3.706v-3.986C633.203,2484.432,633.063,2484.572,632.993,2484.642z"/>
		</g>
		<g>
			<path style="fill:#FBC9C9;" d="M1223.725,2821.936c177.576-1.603,658.776-84.676,753.16-223.883
				c-60.039-111.103-302.2-278.767-302.2-278.767c-81.708,117.443-345.402,175.716-477.258,168.652L1223.725,2821.936z"/>
		</g>
		<g>
			<path style="fill:#F2A5A5;" d="M1976.897,2598.071c-94.402,139.184-575.595,222.249-753.169,223.873l-19.53-247.712
				c66.75,36.2,204.238,101.218,280.099,47.925c47.925-33.656-95.744-84.089-112.096-150.803
				c120.325-24.757,249.549-76.002,302.489-152.074C1674.69,2319.28,1916.858,2486.964,1976.897,2598.071z"/>
		</g>
		<g>
			<path style="fill:#262F6A;" d="M1223.724,2836.339c-7.893,0-14.326-6.362-14.4-14.272c-0.071-7.952,6.318-14.458,14.273-14.531
				c179.214-1.619,634.99-82.539,736.143-210.449c-56.204-93.054-235.164-224.521-281.975-257.983
				c-96.79,118.967-360.969,169.629-481.108,163.218c-7.942-0.427-14.036-7.209-13.611-15.154
				c0.427-7.939,7.112-14.026,15.154-13.611c134.951,7.256,389.106-53.892,464.666-162.495c4.536-6.519,13.494-8.132,20.02-3.616
				c10.002,6.926,245.696,170.923,306.672,283.762c2.554,4.727,2.263,10.481-0.75,14.927
				c-98.95,145.94-587.158,228.598-764.951,230.205C1223.812,2836.339,1223.768,2836.339,1223.724,2836.339z"/>
		</g>
		<g>
			<g>
				<path style="fill:#FCCACA;" d="M3050.761,1935.16c0,0,44.802,5.634,115.809-44.895c80.433-57.159,44.038-140.193,44.038-140.193
					s41.917-29.093,36.332-82.131c-2.394-22.618-11.97-40.819-24.929-55c-20.792-22.802-50.317-35.202-72.492-38.595
					c-20.61-3.218-29.393,5.008-31.12,8.128c-1.497,2.619-2.309,10.916,10.783,13.703c24.163,5.288,53.81,16.06,69.367,48.159
					c0.437,0.812,0.81,1.674,1.125,2.531c13.201,31.131-10.02,60.383-10.02,60.383c-9.403-17.654-22.155-32.633-37.125-43.784
					c-29.831-22.495-68.392-29.894-105.972-13.338c-56.397,24.831-65.987,93.943-14.11,133.807
					c7.507,5.769,15.59,9.812,23.911,12.505c49.009,15.99,106.177-14.942,106.177-14.942s12.8,20.058-15.846,53.747
					c-28.614,33.662-108.673,47.689-108.673,47.689L3050.761,1935.16z M3144.254,1738.123c0,0-43.112,27.199-75.836,6.434
					c-13.06-8.298-17.088-18.691-16.224-27.452c0.072-0.637,0.162-1.184,0.285-1.757c0.323-1.577,0.795-3.167,1.35-4.717
					c1.232-3.147,3.089-5.843,5.344-7.907c9.13-8.451,35.572-18.277,65.204,10.443
					C3130.913,1719.5,3137.594,1727.668,3144.254,1738.123z"/>
			</g>
			<g>
				<path style="fill:#F2A5A5;" d="M3050.761,1935.16c0,0,44.802,5.634,115.809-44.895c80.433-57.159,44.038-140.193,44.038-140.193
					s41.917-29.093,36.332-82.131c-2.394-22.618-11.97-40.819-24.929-55c-0.577,12.224-5.149,27.638-22.337,33.925
					c13.201,31.131-10.02,60.383-10.02,60.383c-9.403-17.654-22.155-32.633-37.125-43.784c1.113,14.409-3.044,34.239-28.152,49.699
					c6.535,6.334,13.216,14.503,19.876,24.958c0,0-43.112,27.199-75.836,6.434c-13.06-8.298-17.088-18.691-16.224-27.452
					c-3.896,23.79,15.376,53.607,4.165,79.335c49.009,15.99,106.177-14.942,106.177-14.942s12.8,20.058-15.846,53.747
					c-28.614,33.662-108.673,47.689-108.673,47.689L3050.761,1935.16z"/>
			</g>
			<g>
				<path style="fill:#FFFFFF;" d="M3052.48,1715.347c0.323-1.577,0.795-3.167,1.35-4.717
					C3053.198,1712.084,3052.726,1713.673,3052.48,1715.347z"/>
			</g>
			<g>
				<path style="fill:#262F6A;" d="M3140.603,1573.617c2.691,0,5.662,0.22,8.927,0.725c35.935,5.573,91.187,34.619,97.409,93.63
					c5.589,53.017-36.371,82.097-36.371,82.097s36.422,83.068-43.991,140.242c-58.061,41.29-98.58,45.056-111.437,45.056
					c-2.87,0-4.364-0.188-4.364-0.188l-12.801-52.245c0,0,80.079-14.039,108.723-47.719c28.645-33.679,15.832-53.677,15.832-53.677
					s-36.14,19.521-75.575,19.521c-18.595,0-37.925-4.342-54.539-17.118c-51.848-39.872-42.241-109.005,14.146-133.797
					c13.966-6.141,28.053-8.984,41.784-8.984c41.705,0.002,80.06,26.251,101.267,66.078c0,0,24.553-30.887,8.958-62.924
					c-15.59-32.057-45.18-42.859-69.406-48.116c-13.073-2.821-12.238-11.125-10.786-13.735
					C3119.853,1579.821,3126.306,1573.617,3140.603,1573.617 M3096.809,1752.363c24.88,0,47.47-14.241,47.47-14.241
					c-21.998-34.467-43.945-44.127-60.477-44.127c-11.321,0.001-20.103,4.53-24.622,8.727c-9.201,8.57-12.473,28.025,9.243,41.819
					C3077.466,1750.285,3087.304,1752.363,3096.809,1752.363 M3140.604,1542.693c-26.146,0-42.577,12.768-49.237,24.717
					c-5.833,10.488-6.277,23.418-1.205,34.614c1.072,2.366,2.715,5.33,5.171,8.403c-2.322-0.126-4.65-0.189-6.985-0.189
					c-18.479-0.001-36.726,3.902-54.233,11.6c-36.713,16.143-61.341,48.118-65.878,85.535
					c-4.599,37.932,12.346,75.72,45.328,101.085c20.302,15.612,44.995,23.529,73.391,23.529c4.174,0,8.3-0.173,12.352-0.488
					c-20.41,9.865-47.601,17.595-66.702,20.982c-8.418,1.493-15.858,6.407-20.524,13.57c-4.667,7.162-6.176,15.941-4.142,24.244
					l12.801,52.245c3.05,12.447,13.46,21.724,26.175,23.323c1.276,0.161,4.042,0.43,8.225,0.43
					c17.426,0,64.913-4.948,129.358-50.779c66.548-47.315,71.124-113.849,61.481-155.938c18.194-20.064,36.136-52.892,31.713-94.846
					c-7.498-71.111-69.235-112.544-123.424-120.947C3149.586,1543.059,3144.993,1542.693,3140.604,1542.693L3140.604,1542.693z"/>
			</g>
			<g>
				<path style="fill:#262F6A;" d="M3215.211,1774.696c-14.978-65.532-56.809-108.918-90.959-127.668l13.022-23.721
					c39.299,21.58,87.341,71.096,104.314,145.359L3215.211,1774.696z"/>
			</g>
			<g>
				<path style="fill:#262F6A;" d="M3151.761,1831.686l-20.498-17.666c7.774-9.019,10.74-19.002,9.065-30.515
					c-3.713-25.542-28.914-51.072-38.794-57.415l14.614-22.773c13.774,8.84,45.725,40.325,50.957,76.294
					C3169.896,1798.796,3164.588,1816.801,3151.761,1831.686z"/>
			</g>
		</g>
		<g>
			<path style="fill:#686779;" d="M3106.528,2462.737c0,0,278.296-91.594,360.179-267.859
				c62.46-134.452-43.191-247.193-193.165-182.676c-128.28,55.184-209.323,60.272-209.323,60.272L3106.528,2462.737z"/>
		</g>
		<g>
			<path style="fill:#686779;" d="M3106.528,2462.737c0,0,278.296-91.594,360.179-267.859
				c62.46-134.452-43.191-247.193-193.165-182.676c-128.28,55.184-209.323,60.272-209.323,60.272L3106.528,2462.737z"/>
		</g>
		<g>
			<path style="fill:#FFFFFF;" d="M3106.528,2462.737c0,0,278.296-91.594,360.179-267.859
				c62.46-134.452-43.191-247.193-193.165-182.676c-128.28,55.184-209.323,60.272-209.323,60.272L3106.528,2462.737z"/>
		</g>
		<g>
			<path style="fill:#FBC9C9;" d="M3484.929,2121.434c-0.529,22.956-6.322,47.819-18.223,73.459
				c-81.9,176.267-360.162,267.844-360.162,267.844l-42.31-390.252c0,0,54.988-3.461,146.071-35.529
				c19.495-6.852,40.615-15.01,63.253-24.757C3394.906,1959.965,3487.26,2023.889,3484.929,2121.434z"/>
		</g>
		<g>
			<path style="fill:#F2A5A5;" d="M3484.929,2121.434c-0.529,22.956-6.322,47.819-18.223,73.459
				c-81.9,176.267-360.162,267.844-360.162,267.844l-42.31-390.252c0,0,54.988-3.461,146.071-35.529
				c23.874,26.77,43.405,72.541,45.135,168.991C3257.135,2301.197,3432.978,2257.545,3484.929,2121.434z"/>
		</g>
		<g style="opacity:0.6;">
			<path style="fill:#FFFFFF;" d="M3484.149,2133.945c-12.584-88.413-85.181-148.209-217.897-97.316
				c-39.934,15.314-93.044,23.654-132.689,23.427c35.363-8.701,83.023-23.332,139.976-47.845
				C3400.064,1957.776,3495.025,2029.452,3484.149,2133.945z"/>
		</g>
		<g>
			<path style="fill:#262F6A;" d="M3106.524,2477.145c-6.05,0-11.68-3.843-13.675-9.902c-2.488-7.554,1.619-15.694,9.17-18.184
				c2.724-0.898,273.357-91.765,351.626-260.247c26.624-57.312,21.919-112.727-12.583-148.232
				c-36.379-37.432-96.87-43.096-161.829-15.149c-129.092,55.535-210.701,61.204-214.111,61.416
				c-7.92,0.461-14.78-5.532-15.276-13.469c-0.5-7.939,5.532-14.778,13.469-15.276c0.774-0.051,80.525-5.781,204.536-59.131
				c76.362-32.847,148.838-24.8,193.867,21.536c42.512,43.747,49.429,112.888,18.049,180.439
				c-83.555,179.858-357.134,271.653-368.74,275.471C3109.534,2476.911,3108.016,2477.145,3106.524,2477.145z"/>
		</g>
		<g>
			<path style="fill:#FFFFFF;" d="M3207.88,2119.971c-5.415-300.084-283.797-509.631-625.227-380.709l-528.474,522.533
				l-244.834,310.203c96.284,133.164,239.434,149.647,528.719,152.59c112.602,1.146,239.449-11.091,380.069-18.581
				c44.341-13.936,192.968-54.996,311.533-145.375c41.243-32.126,138.07-97.895,164.82-222.026L3207.88,2119.971z"/>
		</g>
		<g>
			<path style="fill:#FBC9C9;" d="M3207.868,2119.986l-13.385,218.612c-26.735,124.139-123.574,189.899-164.824,222.037
				c-118.559,90.376-267.173,131.45-311.531,145.365c-140.632,7.487-267.455,19.741-380.081,18.576
				c-289.281-2.931-432.42-19.424-528.694-152.569l109.27-138.478l135.546-171.746l528.482-522.514
				c312.625-118.065,572.346,47.642,618.117,306.798C3205.007,2069.942,3207.409,2094.628,3207.868,2119.986z"/>
		</g>
		<g style="opacity:0.6;">
			<path style="fill:#FFFFFF;" d="M3207.798,2117.302c-0.989-8.158-2.19-16.21-3.602-24.157
				c-25.217-142.892-115.486-257.39-243.828-311.531c-0.035,1.448-0.176,2.931-0.423,4.38
				c-4.945,28.536-49.408,44.711-99.312,36.058c-49.902-8.618-86.35-38.743-81.406-67.314c0.424-2.472,1.166-4.874,2.155-7.134
				c-61.451,0.742-127.141,12.997-195.303,38.743l-528.482,522.514l-135.547,171.746l-92.318,117.005
				c-7.063-8.017-13.809-16.529-20.378-25.605l109.27-138.478l135.546-171.746l528.482-522.514
				c312.625-118.065,572.346,47.642,618.117,306.798C3204.866,2069.094,3207.232,2092.863,3207.798,2117.302z"/>
		</g>
		<g>
			<path style="fill:#F2A5A5;" d="M3207.868,2119.986l4.603,122.314l-17.988,96.298
				c-26.735,124.139-123.574,189.899-164.824,222.037c-118.559,90.376-267.173,131.45-311.531,145.365
				c-140.632,7.487-267.455,19.741-380.081,18.576c-289.281-2.931-432.42-19.424-528.694-152.569l109.27-138.478l459.191-6.781
				c0,0-177.997,251.668,92.99,257.813c153.84,3.496,261.416,1.589,288.327-58.485c37.401-83.454,34.54-144.587,49.55-151.651
				c15.01-7.063,29.56,92.036,132.438,54.141c224.898-82.783,252.693-287.056,259.65-482.5
				C3205.007,2069.942,3207.409,2094.628,3207.868,2119.986z"/>
		</g>
		<g>
			<path style="fill:#F2A5A5;" d="M2291.712,2723.94c-138.583-2.366-241.038-9.712-320.289-35.387
				c0-26.284,28.559-43.509,62.052-47.695c93.001-11.625,175.996,47.236,248.949,52.604
				C2299.283,2694.703,2291.712,2723.94,2291.712,2723.94z"/>
		</g>
		<g>
			<path style="fill:#262F6A;" d="M3207.88,2119.971c-42.326-327.251-315.113-475.429-620.14-367.235
				c0.001-0.001,5.039-3.233,5.039-3.233c1.336,0.354-533.412,526.39-527.296,521.22c0.001-0.006-244.833,310.197-244.833,310.197
				l0.366-17.36c22.311,31.046,49.689,57.902,81.818,77.855c65.654,40.886,144.876,53.298,221.359,60.501
				c39.144,3.45,78.59,5.376,118.134,6.459c79.229,2.19,157.92,2.328,237.06-2.777c72.522-3.453,176.155-13.762,233.893-15.04
				c104.984-31.475,208.358-71.58,297.971-135.436c79.983-55.522,149.606-122.834,183.235-216.518
				c-1.709,26.449-8.362,52.828-18.871,77.72c-10.499,24.927-25.011,48.236-42.021,69.354
				c-29.661,36.896-66.798,65.846-104.208,94.036c-90.747,68.093-198.554,109.801-306.397,141.736
				c-159.735,9.897-321.046,22.748-481.516,15.78c-158.005-5.588-345.215-12.881-443.791-156.79
				c-3.927-5.2-3.682-12.253,0.175-17.141c-0.135-0.108,245.057-310.272,245.017-310.431
				c7.286-5.236,525.72-523.196,533.999-526.806c137.266-57.217,304.08-61.495,434.724,17.158
				C3141.559,1817.909,3224.501,1971.193,3207.88,2119.971L3207.88,2119.971z"/>
		</g>
		<g>
			<g>
				<path style="fill:#FBC9C9;" d="M1419.389,1140.978c0,0,152.756,94.514,147.099,247.745
					c-4.618,125.089-225.462,163.387-225.462,163.387l-171.027-169.51"/>
			</g>
			<g>
				<path style="fill:#F2A5A5;" d="M1485.296,1455.45c-0.778,20.348-7.244,38.433-17.559,54.381l-0.048,0.008
					c-60.608,30.807-126.642,42.28-126.642,42.28l-171.064-169.512l175.48-170.028
					C1375.724,1233.686,1490.201,1322.432,1485.296,1455.45z"/>
			</g>
			<g>
				<path style="fill:#262F6A;" d="M1341.026,1568.595c-4.309,0-8.491-1.692-11.606-4.778l-171.028-169.509
					c-6.465-6.409-6.514-16.848-0.102-23.315c6.409-6.465,16.848-6.511,23.315-0.103l164.795,163.332
					c38.577-8.24,200.012-48.545,203.613-146.108c5.242-142.004-137.854-232.222-139.299-233.115
					c-7.744-4.793-10.137-14.954-5.347-22.695c4.795-7.744,14.958-10.129,22.695-5.344c6.57,4.065,160.842,101.409,154.9,262.371
					c-5.051,136.87-229.565,177.366-239.119,179.021C1342.904,1568.515,1341.961,1568.595,1341.026,1568.595z"/>
			</g>
			<g>
				<path style="fill:#FBC9C9;" d="M2666.391,1964.413c24.498,180.849,13.158,425.826-329.448,545.706
					c-473.121,165.547-1043.537,31.01-1193.648-183.46c-117.498-167.875-71.343-318.295-18.138-410.851
					c78.637-525.559,267.058-666.831,455.456-724.508c260.674-79.804,730.824-73.317,951.599,264.957
					C2618.036,1587.755,2639.285,1764.315,2666.391,1964.413z"/>
			</g>
			<g>
				<path style="fill:#FBC9C9;" d="M2666.391,1964.413c24.498,180.849,13.158,425.826-329.448,545.706
					c-473.121,165.547-1043.537,31.01-1193.648-183.46c-117.498-167.875-71.343-318.295-18.138-410.851
					c78.637-525.559,267.058-666.831,455.456-724.508c260.674-79.804,730.824-73.317,951.599,264.957
					C2618.036,1587.755,2639.285,1764.315,2666.391,1964.413z"/>
			</g>
			<g>
				<path style="fill:#F2A5A5;" d="M2583.57,2370.253c-51.357,55.379-125.594,104.387-231.492,141.452
					c-415.913,145.531-907.045,59.16-1121.694-109.622C1517.281,2542.905,2215.604,2600.849,2583.57,2370.253z"/>
			</g>
			<g>
				<path style="fill:#F2A5A5;" d="M1423.691,1266.77c-56.754,104.476,0.664,293.923-120.898,401.861
					c-40.075,35.527-89.9,43.386-136.243,39.511C1228.527,1468.777,1321.054,1340.307,1423.691,1266.77z"/>
			</g>
			<g>
				<path style="fill:#F2A5A5;" d="M2613.53,1652.379c-44.29,63.872-104.198,115.067-177.8,97.86
					c-232.014-54.308-296.711-411.481-283.765-563.982c148.254,42.818,286.653,126.578,380.233,269.982
					C2569.667,1513.645,2594.822,1579.638,2613.53,1652.379z"/>
			</g>
			<g>
				
					<ellipse transform="matrix(0.7071 -0.7071 0.7071 0.7071 -849.667 2277.8586)" style="fill:#FF6982;" cx="2324.785" cy="2164.568" rx="232.34" ry="232.34"/>
			</g>
			<g>
				<path style="fill:#FF6982;" d="M1292.14,2094.807c18.32,106.808-39.399,209.095-133.995,251.422
					c-5.325-6.446-10.229-13.013-14.839-19.582c-117.498-167.858-71.375-318.298-18.165-410.832
					c0.278-1.813,0.555-3.628,0.833-5.442C1209.536,1933.869,1276.485,2003.536,1292.14,2094.807z"/>
			</g>
			<g>
				<path style="fill:#262F6A;" d="M1823.087,2595.653c-44.678,0-89.622-2.446-133.933-7.297c-0.183-0.017-0.369-0.039-0.549-0.061
					c-259.106-33.274-473.23-129.905-558.813-252.183c-119.297-170.442-77.505-325.159-20.479-425.801
					c36.624-242.82,98.516-420.137,189.185-542.051c70.84-95.256,158.953-156.494,277.29-192.724
					c151.094-46.257,337.517-55.501,498.679-24.731c207.817,39.678,370.876,142.185,471.553,296.44
					c84.724,129.814,107.446,298.184,133.76,493.14l2.949,21.816c24.673,182.136,16.238,438.711-340.339,563.479
					c-6.003,2.102-12.024,4.155-18.059,6.159c-115.647,38.447-239.263,59.15-367.366,61.536l-111.262,2.07
					C1838.175,2595.585,1830.633,2595.653,1823.087,2595.653z M1692.537,2555.556c50.469,5.534,101.79,7.861,152.551,6.921
					l111.26-2.07c124.78-2.319,245.088-22.458,357.583-59.856c5.872-1.951,11.726-3.95,17.566-5.994
					c333.816-116.802,341.68-357.239,318.555-527.93l-2.949-21.833c-25.779-190.996-48.042-355.947-128.696-479.526
					c-217.041-332.554-676.858-336.621-932.966-258.203c-174.939,53.557-364.49,179.934-443.979,711.182
					c-0.303,2.036-0.986,3.994-2.012,5.776c-53.042,92.275-93.088,235.391,17.354,393.184
					C1237.203,2432.077,1442.474,2523.395,1692.537,2555.556z"/>
			</g>
			<g>
				<path style="fill:#ED6882;" d="M1857.496,2092.986c-15.071,59.757-105.626,115.816-227.067,101.188
					c-116.657-14.051-164.454-89.225-162.667-145.026c2.053-64.081,64.561-147.055,197.033-143.169
					C1779.847,1909.354,1882.481,1993.921,1857.496,2092.986z"/>
			</g>
			<g>
				<path style="fill:#E8496B;" d="M1857.511,2093.005c-15.069,59.744-105.641,115.806-227.082,101.162
					c-116.676-14.037-164.453-89.202-162.641-145.003c0.126-3.554,0.396-7.133,0.856-10.745
					c20.362,42.627,68.484,83.192,151.052,93.168c121.433,14.595,212.005-41.466,227.074-101.209
					c1.553-6.105,2.574-12.168,3.166-18.157C1861.276,2036.869,1864.761,2064.336,1857.511,2093.005z"/>
			</g>
			<g style="opacity:0.7;">
				<path style="fill:#FFFFFF;" d="M1861.221,2060.576c-16.817-51.134-67.231-92.188-128.888-110.118
					c-0.015,0.199-0.03,0.398-0.045,0.596c-1.834,13.905-19.599,23.036-39.725,20.404c-20.126-2.632-34.936-16.037-33.15-29.934
					c0.046-0.302,0.093-0.604,0.147-0.859c-124.81,0.9-183.882,80.996-185.814,143.245c-0.011,1.081-0.069,2.171-0.032,3.244
					c-4.394-13.033-6.315-25.951-5.927-37.989c2.011-64.078,64.559-147.077,197.008-143.202
					C1767.07,1908.978,1859.495,1976.14,1861.221,2060.576z"/>
			</g>
			<g>
				<path style="fill:#262F6A;" d="M1668.465,2209.496c-12.813,0-26.023-0.771-39.592-2.407
					c-117.183-14.114-176.292-90.347-174.114-158.357c2.002-62.549,60.915-160.168,210.417-155.757
					c72.493,2.126,141.194,34.761,179.289,85.166c27.18,35.962,36.047,76.775,25.642,118.027
					C1855.382,2154.569,1776.373,2209.496,1668.465,2209.496z M1655.648,1918.852c-124.17,0-173.24,79.382-174.883,130.715
					c-1.458,45.439,37.615,118.01,151.218,131.692c113.777,13.714,199.116-36.799,212.9-91.453
					c10.623-42.119-5.652-75.439-21.174-95.976c-33.455-44.268-94.495-72.947-159.294-74.849
					C1661.456,1918.893,1658.524,1918.852,1655.648,1918.852z M1857.496,2092.987h0.049H1857.496z"/>
			</g>
			<g>
				
					<ellipse transform="matrix(0.0859 -0.9963 0.9963 0.0859 -619.5231 3422.8533)" style="fill:#262F6A;" cx="1555.544" cy="2049.04" rx="55.395" ry="22.747"/>
			</g>
			<g>
				
					<ellipse transform="matrix(0.0859 -0.9963 0.9963 0.0859 -495.0193 3584.4692)" style="fill:#262F6A;" cx="1705.869" cy="2061.999" rx="55.395" ry="22.747"/>
			</g>
			<g>
				<g>
					<path style="fill:#FCCACA;" d="M2427.364,1641.969c-192.756-11.93-302.28-371.864-265.97-479.114
						c22.926-67.715,109.567-95.773,186.242-59.224c36.652,17.46,71.029,49.686,95.018,99.443
						c30.345,3.283,92.796,12.688,138.292,47.667c0.055,0.04,0.055,0.04,0.103,0.031c22.054,17.02,40.13,40.021,48.633,71.288
						C2664.781,1451.456,2534.966,1648.584,2427.364,1641.969z"/>
				</g>
				<g>
					<path style="fill:#F2A5A5;" d="M2580.948,1250.742c-28.617-19.525-106.224-31.188-132.663,11.47
						c-29.067,46.788-9.042,172.978-14.332,173.885c-3.384,0.58-15.185-80.01-20.094-122.112
						c-6.433-55.175,4.525-146.09-76.145-195.748c-10.829-6.666,19.653-3.112,9.922-14.605
						c36.652,17.46,71.029,49.686,95.018,99.443C2473,1206.358,2535.451,1215.762,2580.948,1250.742z"/>
				</g>
				<g>
					<path style="fill:#262F6A;" d="M2432.569,1658.603c-2.095,0-4.17-0.063-6.243-0.19
						c-68.235-4.214-132.625-48.613-186.211-128.401c-83.867-124.871-118.979-299.609-94.343-372.422
						c16.782-49.6,63.484-82.649,121.877-86.255c59.202-3.594,138.13,25.278,185.757,116.406
						c106.326,13.472,172.693,58.308,192.163,129.998c23.496,86.506-20.168,191.733-73.865,257.644
						C2528.35,1628.6,2478.011,1658.6,2432.569,1658.603z M2277.596,1104.003c-2.681,0-5.32,0.083-7.915,0.242
						c-44.761,2.764-80.271,27.253-92.673,63.911c-21.274,62.879,14.341,230.108,90.479,343.472
						c33.225,49.468,88.105,109.38,160.872,113.875c35.747,2.234,79.792-24.311,117.786-70.945
						c57.219-70.237,85.02-164.065,67.605-228.176c-20.407-75.139-105.261-99.612-172.854-106.909
						c-5.659-0.613-10.603-4.099-13.078-9.226C2389.888,1131.642,2326.846,1104.003,2277.596,1104.003z"/>
				</g>
			</g>
			<g>
				<g>
					<path style="fill:#FBC9C9;" d="M1470.865,1182.238l-98.1,51.072c-63.356,381.786-280.613,481.017-342.134,421.262
						c-34.614-33.608-12.642-71.133-21.245-135.303c-8.934-66.96-12.838-112.607,10.387-155.694
						c14.904-27.529,40.83-54.006,83.609-84.354c0,0,58.479-113.015,153.022-153.075
						C1315.584,1101.031,1388.9,1104.548,1470.865,1182.238z"/>
				</g>
				<g>
					<path style="fill:#F2A5A5;" d="M1372.177,1236.747c-64.085,378.967-280.201,477.414-341.546,417.825
						c-14.424-14.011-19.056-28.721-20.067-45.769c41.82,72.186,150.051,12.455,227.18-109.107
						C1334.94,1346.384,1323.771,1173.074,1372.177,1236.747z"/>
				</g>
				<g>
					<path style="fill:#F2A5A5;" d="M1256.404,1126.146c0,0-74.98,66.823-113.156,165.813
						c-25.977,67.358-36.682,180.227-40.007,174.86c-3.364-5.311,5.612-48.048-8.652-98.414
						c-17.994-63.539-74.752-4.743-74.752-4.743l-0.064-0.087c14.904-27.529,40.83-54.006,83.609-84.354
						C1103.382,1279.221,1161.861,1166.206,1256.404,1126.146z"/>
				</g>
				<g>
					<path style="fill:#262F6A;" d="M1372.757,1233.293c0.233,161.886-85.434,378.258-244.927,443.829
						c-49.536,19.865-111.733,13.275-130.008-45.275c-6.789-24.016-3.114-46.301-2.838-69.275
						c0.766-21.36-1.661-40.257-4.575-61.826c-16.29-114.653,9.7-168.224,103.464-234.976c-0.001,0-5.109,5.871-5.109,5.871
						c45.247-79.923,118.047-162.867,214.732-174.768c67.39-7.979,132.458,28.779,178.708,73.381
						c15.366,15.456-6.427,38.447-22.654,23.956c-26.414-25.038-56.491-45.766-89.259-57.381
						c-109.104-36.994-203.374,62.45-252.242,149.967c-1.27,2.368-3.081,4.378-5.109,5.873
						c-16.834,12.301-33.367,24.962-47.775,39.119c-14.273,14.207-26.473,29.725-34.374,46.915
						c-20.673,43.598-9.073,100.44-3.709,150.665c0.873,11.427,1.131,22.84,0.865,34.005c0.072,31.969-7.726,57.842,13.947,79.123
						c19.551,17.639,50.672,11.667,73.788,2.806c41.778-16.592,76.765-49.219,105.179-83.929
						C1298.276,1466.834,1333.132,1347.033,1372.757,1233.293L1372.757,1233.293z"/>
				</g>
			</g>
			<g>
				<g>
					<g>
						
							<ellipse transform="matrix(0.9976 -0.0686 0.0686 0.9976 -125.0412 141.3714)" style="fill:#262F6A;" cx="1995.336" cy="1890.833" rx="145.651" ry="168.199"/>
					</g>
				</g>
				<g>
					<g>
						
							<ellipse transform="matrix(0.9976 -0.0686 0.0686 0.9976 -128.331 139.9633)" style="fill:#FFFFFF;" cx="1973.215" cy="1938.037" rx="47.488" ry="60.117"/>
					</g>
				</g>
				<g style="opacity:0.2;">
					<g>
						
							<ellipse transform="matrix(0.9976 -0.0686 0.0686 0.9976 -120.9725 144.3259)" style="fill:#FFFFFF;" cx="2040.476" cy="1833.169" rx="26.301" ry="40.684"/>
					</g>
				</g>
			</g>
			<g>
				<g>
					<g>
						
							<ellipse transform="matrix(0.9976 -0.0686 0.0686 0.9976 -126.2052 99.5606)" style="fill:#262F6A;" cx="1386.151" cy="1886.886" rx="123.731" ry="142.885"/>
					</g>
				</g>
				<g>
					<g>
						
							<ellipse transform="matrix(0.9976 -0.0686 0.0686 0.9976 -128.9973 98.3627)" style="fill:#FFFFFF;" cx="1367.359" cy="1926.986" rx="40.341" ry="51.069"/>
					</g>
				</g>
				<g style="opacity:0.2;">
					<g>
						
							<ellipse transform="matrix(0.9976 -0.0686 0.0686 0.9976 -122.7483 102.0717)" style="fill:#FFFFFF;" cx="1424.498" cy="1837.9" rx="22.343" ry="34.562"/>
					</g>
				</g>
			</g>
			<g>
				<g>
					<path style="fill:#262F6A;" d="M1793.452,2279.494c35.551,21.866,85.414,16.21,112.016-15.279
						c7.901-9.583,12.669-21.186,15.176-34.158c1.067-6.461,7.282-10.805,13.715-9.55c5.529,1.069,9.382,5.887,9.442,11.307
						c1.233,35.707-27.677,69.298-61.799,77.219C1850.344,2317.943,1810.633,2308.27,1793.452,2279.494L1793.452,2279.494z"/>
				</g>
				<g>
					<path style="fill:#262F6A;" d="M1904.675,2229.49c14.585-25.524,56.495-5.433,45.409,21.858
						C1932.874,2244.391,1921.374,2238.869,1904.675,2229.49L1904.675,2229.49z"/>
				</g>
			</g>
		</g>
		<defs>
			
				<filter id="Adobe_OpacityMaskFilter" filterUnits="userSpaceOnUse" x="436.539" y="1214.195" width="2118.135" height="1594.177">
				<feFlood  style="flood-color:white;flood-opacity:1" result="back"/>
				<feBlend  in="SourceGraphic" in2="back" mode="normal"/>
			</filter>
		</defs>
		<mask maskUnits="userSpaceOnUse" x="436.539" y="1214.195" width="2118.135" height="1594.177" id="SVGID_1_">
			<g style="filter:url(#Adobe_OpacityMaskFilter);">
				<defs>
					
						<filter id="Adobe_OpacityMaskFilter_00000067194247683883462350000003002948702938458040_" filterUnits="userSpaceOnUse" x="436.539" y="1214.195" width="2118.135" height="1594.177">
						<feFlood  style="flood-color:white;flood-opacity:1" result="back"/>
						<feBlend  in="SourceGraphic" in2="back" mode="normal"/>
					</filter>
				</defs>
				<mask maskUnits="userSpaceOnUse" x="436.539" y="1214.195" width="2118.135" height="1594.177" id="SVGID_1_">
					<g style="filter:url(#Adobe_OpacityMaskFilter_00000067194247683883462350000003002948702938458040_);">
					</g>
				</mask>
				
					<linearGradient id="SVGID_00000048472353940832360080000018358532504974405036_" gradientUnits="userSpaceOnUse" x1="1812.8167" y1="1646.4899" x2="859.3962" y2="2592.9568">
					<stop  offset="0" style="stop-color:#000000"/>
					<stop  offset="1" style="stop-color:#999999"/>
				</linearGradient>
				<path style="mask:url(#SVGID_1_);fill:url(#SVGID_00000048472353940832360080000018358532504974405036_);" d="M436.539,2161.74
					c234.487-315.849,468.975-631.696,703.463-947.545c471.557,265.351,943.115,530.702,1414.672,796.053
					c-368.608,260.003-737.216,520.005-1105.823,780.008l-757.401,18.115L436.539,2161.74z"/>
			</g>
		</mask>
		
			<linearGradient id="SVGID_00000028315780543899741850000006513876953391252874_" gradientUnits="userSpaceOnUse" x1="1812.8167" y1="1646.4899" x2="859.3962" y2="2592.9568">
			<stop  offset="0" style="stop-color:#FFFFFF"/>
			<stop  offset="1" style="stop-color:#FCEE21"/>
		</linearGradient>
		<path style="fill:url(#SVGID_00000028315780543899741850000006513876953391252874_);" d="M436.539,2161.74
			c234.487-315.849,468.975-631.696,703.463-947.545c471.557,265.351,943.115,530.702,1414.672,796.053
			c-368.608,260.003-737.216,520.005-1105.823,780.008l-757.401,18.115L436.539,2161.74z"/>
		<g>
			<path style="fill:none;stroke:#6B184E;stroke-width:28.8036;stroke-linecap:round;stroke-miterlimit:10;" d="M2319.407,1947.372"
				/>
		</g>
		<g>
			<g>
				<path style="fill:#B0BAC6;" d="M1390.129,2802.627l-545.442,9.464l-115.35,2.159c-43.281,0.814-82.569-23.372-101.781-61.156
					l-0.063-0.01c-2.526-4.938-4.687-10.137-6.492-15.533l-180.026-541.694c-17.443-52.579,18.497-107.763,73.671-112.97
					l596.402-56.521c72.942-6.94,141.306,36.561,165.919,105.625c0,0-0.01,0.063,0.042,0.136l196.206,550.593
					C1493.771,2740.594,1451.574,2801.566,1390.129,2802.627z"/>
			</g>
			<g>
				<path style="fill:#FFF3E9;" d="M1260.252,2098.173c-32.446-29.231-76.404-44.783-122.208-40.458l-596.402,56.521
					c-55.184,5.27-91.114,60.391-73.671,112.971l180.016,541.755c2.389,7.301,5.552,14.215,9.311,20.648
					c-16.438-13.135-29.245-31.016-36.297-52.06l-180.026-541.694c-17.443-52.579,18.497-107.763,73.671-112.97l596.402-56.521
					C1171.21,2020.64,1228.271,2049.221,1260.252,2098.173z"/>
			</g>
			<g>
				<path style="fill:#B0BAC6;" d="M2234.771,2887.379l-694.643,15.048l-60.713,1.313c-0.125-0.021-0.198,0.031-0.324,0.01
					l-665.447,14.39c-19.094,0.414-36.098-12.043-41.479-30.357l-6.101-20.949c-7.843-26.722,11.941-53.592,39.819-54.083
					l671.499-11.636l0.063,0.011l60.671-1.062l1.286,0.022l695.173-12.056c10.091-0.181,19.333,3.173,26.627,8.908
					c10.952,8.541,17.539,22.349,16.116,37.396l-1.465,14.909C2273.765,2870.563,2256.123,2886.957,2234.771,2887.379z"/>
			</g>
			<g>
				<path style="fill:#B0BAC6;" d="M1538.11,2800.093l-60.697,1.051c-27.765,0.481-50.108,22.964-50.415,50.731v0
					c-0.321,28.992,23.427,52.49,52.414,51.863l60.701-1.314"/>
			</g>
			<g>
				<path style="fill:#262F6A;" d="M812.708,2934.943c-26.099,0-49.268-17.29-56.626-42.432l-6.133-20.95
					c-5.212-17.81-1.895-36.597,9.104-51.543c10.999-14.946,27.947-23.704,46.504-24.026l1428.701-24.744
					c16.865-0.156,32.966,6.624,44.363,18.96c11.399,12.341,17.007,29.009,15.386,45.73l-1.448,14.936
					c-2.886,29.736-27.583,52.649-57.451,53.296l-1421.121,30.757C813.56,2934.938,813.133,2934.943,812.708,2934.943z
					 M2235.303,2804.809c-0.154,0-0.31,0.002-0.464,0.005l-1428.701,24.743c-7.998,0.139-15.305,3.914-20.046,10.357
					c-4.741,6.443-6.172,14.541-3.926,22.219l6.133,20.947c3.223,11.016,13.489,18.408,24.961,18.289l1421.121-30.757
					c12.876-0.281,23.523-10.156,24.766-22.976l1.448-14.934c0,0,0,0,0-0.002c0.71-7.314-1.646-14.316-6.631-19.714
					C2249.083,2807.702,2242.471,2804.809,2235.303,2804.809z"/>
			</g>
			<g>
				<path style="fill:#262F6A;" d="M1478.255,2918.139c-17.405,0-33.748-6.714-46.162-18.999
					c-12.761-12.629-19.68-29.47-19.48-47.422c0.395-35.806,28.75-64.339,64.551-64.958l60.698-1.052
					c7.998-0.002,14.497,6.191,14.634,14.136c0.137,7.944-6.191,14.494-14.136,14.634l-60.698,1.052
					c-20.12,0.349-36.055,16.384-36.279,36.506c-0.112,10.09,3.777,19.556,10.95,26.653c7.175,7.1,16.736,10.823,26.767,10.669
					l60.701-1.316c8.008-0.288,14.524,6.128,14.695,14.07c0.173,7.945-6.128,14.524-14.07,14.695l-60.701,1.316
					C1479.234,2918.134,1478.744,2918.139,1478.255,2918.139z"/>
			</g>
			<g style="opacity:0.25;">
				<path style="fill:#262F6A;" d="M2234.771,2887.379l-694.643,15.048l-60.713,1.313c-0.125-0.021-0.198,0.031-0.324,0.01
					c-28.84,0.458-52.381-23.025-52.066-51.864c0.003-2.708,0.266-5.437,0.697-8.01c4.013-23.963,24.616-42.248,49.66-42.762
					l0.063,0.011l60.671-1.062l1.286,0.022l721.801-3.148c10.952,8.541,17.539,22.349,16.116,37.396l-1.465,14.909
					C2273.765,2870.563,2256.123,2886.957,2234.771,2887.379z"/>
			</g>
			<g>
				<path style="fill:#262F6A;" d="M727.213,2828.635c-54.6,0-102.571-34.514-119.849-86.516L427.345,2200.38
					c-9.719-29.245-5.64-60.825,11.191-86.641c16.831-25.815,44.08-42.29,74.758-45.195l596.372-56.531
					c79.595-7.554,153.979,39.797,180.828,115.137l196.245,550.737c11.401,31.995,6.851,66.36-12.483,94.285
					c-19.333,27.925-49.902,44.28-83.862,44.868c-7.808,0.1-14.495-6.189-14.634-14.136c-0.137-7.944,6.191-14.494,14.136-14.634
					c24.583-0.425,46.709-12.263,60.703-32.478c13.996-20.212,17.288-45.088,9.036-68.247l-196.245-550.737
					c-22.417-62.915-84.492-102.436-151.008-96.152l-596.372,56.531c-21.902,2.078-41.355,13.838-53.372,32.266
					c-12.014,18.43-14.927,40.977-7.988,61.855l180.02,541.738c13.54,40.747,51.538,67.61,94.407,66.797l115.317-2.124
					c8.037,0.022,14.504,6.175,14.651,14.119c0.146,7.944-6.177,14.504-14.119,14.651l-115.317,2.124
					C728.809,2828.627,728.009,2828.635,727.213,2828.635z"/>
			</g>
			<g>
				<path style="fill:#262F6A;" d="M879.671,2108.023c53.564-13.707,110.1-21.014,165.033-26.497c0,0,23.617-1.988,23.617-1.988
					l-1.873,0.11c62.103-9.968,128.632,23.753,157.682,79.828c3.065,5.7,5.817,12.183,8.193,18.21
					c10.929,29.786,21.004,59.852,29.496,90.642c3.163,10.736,8.916,32.785,11.383,43.725c3.465,14.852,6.554,29.882,8.814,45.242
					c0.127,0.855-0.464,1.651-1.319,1.778c-0.714,0.106-1.386-0.289-1.663-0.919c-11.976-27.271-24.237-54.42-35.978-81.792
					l-35.498-81.998c-20.798-55.362-79.549-92.252-138.39-86.216c-55.625,1.253-134.517,2.48-189.426,3.053
					c-0.867,0.012-1.58-0.681-1.592-1.548C878.174,2108.768,878.82,2108.137,879.671,2108.023L879.671,2108.023z"/>
			</g>
			<g style="opacity:0.25;">
				<path style="fill:#262F6A;" d="M1390.129,2802.627l-545.442,9.464l-115.35,2.159c-43.281,0.814-82.569-23.372-101.781-61.156
					c686.275-39.795,650.105-610.604,649.453-620.968l196.206,550.593C1493.771,2740.594,1451.574,2801.566,1390.129,2802.627z"/>
			</g>
		</g>
		<g>
			<path style="fill:#FBC9C9;" d="M2793.742,2622.758c-92.778,222.497-243.475,333.745-383.365,320.819
				c-69.256-6.392-115.38-40.65-147.554-80.028c-17.375-21.225-30.655-43.969-41.321-64.63
				c-30.761-59.58-79.039-222.108-39.061-307.787c25.746-55.165,80.912-87.127,80.912-87.127s-9.959-138.336,145.011-142.54
				c38.39-13.173,138.76-56.931,166.731,58.238c7.664,31.574,5.474,73.036-2.896,97.192
				c-18.471,53.117-75.543,102.242-75.543,102.242l49.338,127.388l213.137-20.448L2793.742,2622.758z"/>
		</g>
		<g>
			<path style="fill:#ED9696;" d="M2173.526,2584.432c14.626-22.809,44.963-28.507,71.908-31.365
				c13.552-1.438,27.124-2.686,40.711-3.744c12.166-0.948,24.361-1.744,36.561-1.5c12.383,0.247,24.724,1.564,37.104,1.948
				c68.878,2.136,138.151-26.236,185.742-76.075c8.47-8.87,16.326-18.448,22.137-29.248c19.987-37.148,13.209-82.55,3.661-123.639
				c-6.216-26.748-15.117-55.751-38.277-70.506c-14.351-9.142-32.328-11.244-49.189-8.961c-16.862,2.283-32.885,8.619-48.513,15.347
				c-6.682,2.876-13.662,5.896-20.92,5.398c-4.569-0.313-8.96-2.019-13.531-2.299c-5.078-0.311-10.082,1.148-14.936,2.672
				c-25.516,8.01-50.337,18.231-74.094,30.512c-6.933,3.584-13.929,7.464-19.072,13.335c-4.34,4.955-7.119,11.06-9.646,17.142
				c-9.036,21.745-15.658,44.492-19.706,67.69c-1.198,6.862-2.358,14.178-6.97,19.398c-3.09,3.498-7.388,5.636-11.442,7.949
				c-29.014,16.556-49.439,45.586-61.013,76.922c-11.574,31.336-15.051,65.059-16.444,98.435"/>
		</g>
		<g style="opacity:0.3;">
			<path style="fill:#FFFFFF;" d="M2291.533,2401.979c-0.017-0.304-2.425-46.147,26.974-78.235
				c19.683-21.487,50.175-32.937,90.624-34.034l4.318-0.117l4.087-1.404c2.397-0.821,5.025-1.755,7.853-2.766
				c16.614-5.922,41.722-14.872,64.329-14.872c21.938,0,45.974,6.632,57.921,55.821c0,0-28.263-63.552-121.414-8.191
				C2312.773,2308.437,2291.533,2401.979,2291.533,2401.979z"/>
		</g>
		<g>
			<path style="fill:#D87979;" d="M2475.835,2519.146c-2.158,1.39-4.412,2.781-6.714,4.076
				c-8.824-13.619-18.702-23.258-24.841-24.025c-65.458-8.248-109.769,15.441-108.81,34.432
				c-2.446-12.948,5.035-38.891,55.292-61.574c25.848-11.653,87.997-29.397,135.089-20.573
				C2544.891,2455.03,2515.83,2492.962,2475.835,2519.146z"/>
		</g>
		<g>
			<path style="fill:#D87979;" d="M2469.122,2523.222c-44.023,24.984-115.907,32.802-130.582,17.408
				c-1.295-1.39-2.494-3.788-3.069-7.001c-0.959-18.99,43.352-42.68,108.81-34.432
				C2450.419,2499.964,2460.298,2509.603,2469.122,2523.222z"/>
		</g>
		<g>
			<path style="fill:#F2A5A5;" d="M2462.552,2617.453c-76.632,35.583-125.066-59.128-127.081-83.442c0-0.144-0.048-0.24,0-0.384
				c0.575,3.213,1.774,5.611,3.069,7.001c14.674,15.394,86.559,7.577,130.582-17.408
				C2487.824,2552.235,2501.443,2599.422,2462.552,2617.453z"/>
		</g>
		<g>
			<path style="fill:#F2A5A5;" d="M2793.742,2622.758c-92.778,222.497-243.475,333.745-383.365,320.819
				c-42.254-3.9-75.897-18.172-103.015-37.652c36.313-45.366,124.168-18.989,203.7-32.146
				c147.522-24.404,248.07-247.701,248.07-247.701L2793.742,2622.758z"/>
		</g>
		<g>
			<path style="fill:#262F6A;" d="M2546.011,2646.521l-62.788-122.175c-3.221-6.139-0.128-11.693,4.036-16.121
				c30.335-28.177,61.373-62.489,73.302-102.757c5.907-23.976,6.213-50.866,2.052-75.041
				c-17.147-89.611-78.685-82.822-149.585-55.335c-1.417,0.502-2.849,0.754-4.283,0.773c-18.076,0.472-35.868,3.06-52.366,8.49
				c-47.229,13.949-75.984,58.122-78.438,106.254c-0.335,3.807-0.367,8.832-0.22,12.369c0.893,12.969-13.306,15.918-21.328,23.566
				c-31.851,25.056-59.9,58.094-67.786,98.728c-14.432,78.186,11.191,176.898,41.533,249.703
				c24.279,53.75,60.294,105.986,114.101,132.297c63.444,31.846,142.625,23.048,205.186-9.329
				c65.94-33.544,118.575-87.898,160.672-148.733c28.829-41.678,54.068-84.588,83.651-126.454
				c-20.057,103.051-84.611,192.158-163.099,260.259c-61.387,51.539-141.33,85.59-222.709,77.836
				c-116.868-8.774-190.164-104.664-225.075-208.35c-24.304-75.227-42.423-155.028-26.593-234.34
				c12.166-54.535,53.167-98.223,99.86-126.612c0,0-7.143,13.494-7.143,13.494c-0.188-3.347-0.181-5.724-0.135-8.481
				c2.482-93.389,68.055-148.433,159.109-149.49c0-0.001-4.282,0.772-4.282,0.772c87.911-35.246,165.655-30.625,187.259,77.386
				c4.931,29.478,4.526,58.513-2.511,87.501c-13.96,47.452-47.002,84.399-82.386,117.324c-0.001-0.001,4.033-16.119,4.033-16.119
				L2546.011,2646.521L2546.011,2646.521z"/>
		</g>
		<g>
			<path style="fill:#262F6A;" d="M2364.486,2553.937c44.427-5.06,88.383-20.937,124.586-47.04c0,0,15.16,24.491,15.16,24.491
				C2460.509,2550.962,2411.923,2558.361,2364.486,2553.937L2364.486,2553.937z"/>
		</g>
		<g>
			
				<ellipse transform="matrix(0.9701 -0.2428 0.2428 0.9701 -568.8624 287.9161)" style="fill:#FFFFFF;" cx="883.442" cy="2451.433" rx="64.739" ry="76.728"/>
		</g>
		<g>
			<path style="fill:#262F6A;" d="M2409.506,2245.642c53.997,18.398,57.545,83.172,44.461,129.064
				c0.643-22.226-1.26-45.528-10.191-65.672c-7.606-18.063-22.411-32.492-41.573-34.181
				C2402.203,2274.852,2409.506,2245.642,2409.506,2245.642L2409.506,2245.642z"/>
		</g>
	</g>
</g>
</svg>
